# xmcd CD database file
#
# Track frame offsets:
#	150
#	35455
#	63012
#	96395
#	129725
#	163245
#	197925
#	233682
#	268667
#
# Disc length: 4078 seconds
#
# Revision: 0
# Processed by: cddbd v1.5.2PL0 Copyright (c) Steve Scherf et al.
# Submitted via: CDex 1.51
#
DISCID=7e0fec09
DTITLE=Brian Carrick's Heritage Stompers - First Choice
DYEAR=1900
DGENRE=Jazz
TTITLE0=Redwing
TTITLE1=Hindustan
TTITLE2=Pagan Love Song
TTITLE3=Pass Me Not O Gentle Saviour
TTITLE4=The First Choice
TTITLE5=Funeral Sequence
TTITLE6=Tulane Swing
TTITLE7=What A Friend In Jesus
TTITLE8=St. Louis Blues
EXTD=
EXTT0=
EXTT1=
EXTT2=
EXTT3=
EXTT4=
EXTT5=
EXTT6=
EXTT7=
EXTT8=
PLAYORDER=
